<svg width="100%" height="100%" viewBox="0 0 24 24" fill="none" xmlns="http://www.w3.org/2000/svg">
<path d="M8.67704 17.2504C8.48757 17.2498 8.30536 17.1774 8.16704 17.0479C7.48215 16.3977 6.93675 15.6148 6.56405 14.7471C6.19135 13.8793 5.99915 12.9448 5.99915 12.0004C5.99915 11.056 6.19135 10.1215 6.56405 9.25372C6.93675 8.38597 7.48215 7.60314 8.16704 6.9529C8.31463 6.83322 8.50214 6.77403 8.69169 6.78727C8.88124 6.80051 9.0587 6.88521 9.18821 7.02424C9.31772 7.16328 9.38964 7.34629 9.38942 7.5363C9.3892 7.72631 9.31687 7.90916 9.18704 8.0479C8.65391 8.55893 8.22967 9.17253 7.93985 9.85178C7.65003 10.531 7.50063 11.2619 7.50063 12.0004C7.50063 12.7389 7.65003 13.4698 7.93985 14.149C8.22967 14.8283 8.65391 15.4419 9.18704 15.9529C9.29671 16.0556 9.37301 16.1888 9.40607 16.3353C9.43914 16.4819 9.42743 16.635 9.37248 16.7748C9.31752 16.9146 9.22185 17.0347 9.09786 17.1195C8.97387 17.2043 8.82726 17.2499 8.67704 17.2504ZM5.67704 19.2604C5.81673 19.1199 5.89514 18.9298 5.89514 18.7317C5.89514 18.5335 5.81673 18.3434 5.67704 18.2029C4.83797 17.4024 4.17005 16.44 3.71369 15.3738C3.25733 14.3077 3.02204 13.1601 3.02204 12.0004C3.02204 10.8407 3.25733 9.69309 3.71369 8.62697C4.17005 7.56085 4.83797 6.59841 5.67704 5.7979C5.82225 5.65766 5.9058 5.46549 5.90932 5.26366C5.91283 5.06182 5.83602 4.86685 5.69579 4.72165C5.55556 4.57644 5.36339 4.49289 5.16155 4.48937C4.95971 4.48586 4.76475 4.56266 4.61954 4.7029C3.63158 5.6443 2.84507 6.77651 2.30767 8.0309C1.77026 9.28529 1.49316 10.6357 1.49316 12.0004C1.49316 13.3651 1.77026 14.7155 2.30767 15.9699C2.84507 17.2243 3.63158 18.3565 4.61954 19.2979C4.69171 19.3658 4.77662 19.4187 4.86936 19.4536C4.9621 19.4885 5.06083 19.5047 5.15986 19.5012C5.25889 19.4977 5.35624 19.4746 5.4463 19.4333C5.53635 19.392 5.61733 19.3332 5.68454 19.2604H5.67704ZM15.8245 17.0479C16.5094 16.3977 17.0548 15.6148 17.4275 14.7471C17.8002 13.8793 17.9924 12.9448 17.9924 12.0004C17.9924 11.056 17.8002 10.1215 17.4275 9.25372C17.0548 8.38597 16.5094 7.60314 15.8245 6.9529C15.7526 6.88543 15.6682 6.83279 15.5759 6.79797C15.4837 6.76315 15.3855 6.74685 15.2869 6.74998C15.1884 6.75312 15.0914 6.77563 15.0016 6.81624C14.9117 6.85684 14.8308 6.91475 14.7633 6.98665C14.6958 7.05855 14.6432 7.14303 14.6084 7.23528C14.5736 7.32752 14.5572 7.42572 14.5604 7.52426C14.5635 7.62281 14.586 7.71977 14.6266 7.80962C14.6672 7.89947 14.7251 7.98043 14.797 8.0479C15.3331 8.55726 15.7599 9.17032 16.0515 9.8498C16.3432 10.5293 16.4936 11.261 16.4936 12.0004C16.4936 12.7398 16.3432 13.4715 16.0515 14.151C15.7599 14.8305 15.3331 15.4435 14.797 15.9529C14.6523 16.0884 14.567 16.2757 14.56 16.4739C14.553 16.6721 14.6247 16.865 14.7595 17.0104C14.8303 17.0867 14.9162 17.1475 15.0118 17.1888C15.1073 17.2301 15.2104 17.2511 15.3145 17.2504C15.504 17.2498 15.6862 17.1774 15.8245 17.0479ZM19.3645 19.2979C20.3554 18.3582 21.1445 17.2265 21.6837 15.9719C22.223 14.7173 22.5011 13.366 22.5011 12.0004C22.5011 10.6348 22.223 9.28352 21.6837 8.0289C21.1445 6.77428 20.3554 5.64262 19.3645 4.7029C19.217 4.58322 19.0295 4.52402 18.8399 4.53727C18.6504 4.55051 18.4729 4.6352 18.3434 4.77424C18.2139 4.91328 18.142 5.09629 18.1422 5.2863C18.1424 5.47631 18.2147 5.65916 18.3445 5.7979C19.1836 6.59841 19.8515 7.56085 20.3079 8.62697C20.7643 9.69309 20.9996 10.8407 20.9996 12.0004C20.9996 13.1601 20.7643 14.3077 20.3079 15.3738C19.8515 16.44 19.1836 17.4024 18.3445 18.2029C18.1998 18.3384 18.1145 18.5257 18.1075 18.7239C18.1005 18.9221 18.1722 19.115 18.307 19.2604C18.377 19.3358 18.4617 19.396 18.5559 19.4373C18.65 19.4786 18.7517 19.5001 18.8545 19.5004C19.044 19.4998 19.2262 19.4274 19.3645 19.2979ZM13.4995 12.0004C13.4995 11.7037 13.4116 11.4137 13.2468 11.167C13.0819 10.9204 12.8477 10.7281 12.5736 10.6146C12.2995 10.5011 11.9979 10.4713 11.7069 10.5292C11.4159 10.5871 11.1487 10.73 10.9389 10.9397C10.7291 11.1495 10.5862 11.4168 10.5284 11.7078C10.4705 11.9987 10.5002 12.3003 10.6137 12.5744C10.7273 12.8485 10.9195 13.0828 11.1662 13.2476C11.4129 13.4124 11.7029 13.5004 11.9995 13.5004C12.3974 13.5004 12.7789 13.3424 13.0602 13.0611C13.3415 12.7798 13.4995 12.3982 13.4995 12.0004Z" fill="#636161"/>
</svg>
