<svg width="100%" height="100%" viewBox="0 0 21 18" fill="none" xmlns="http://www.w3.org/2000/svg">
<path d="M14.8182 16.5451V14.8178C14.8182 13.9016 14.4542 13.0229 13.8064 12.3751C13.1585 11.7272 12.2798 11.3633 11.3636 11.3633H4.45455C3.53834 11.3633 2.65967 11.7272 2.01181 12.3751C1.36396 13.0229 1 13.9016 1 14.8178V16.5451" stroke="#636161" stroke-width="1.5" stroke-linecap="round" stroke-linejoin="round"/>
<path d="M7.90865 7.90909C9.81654 7.90909 11.3632 6.36244 11.3632 4.45455C11.3632 2.54665 9.81654 1 7.90865 1C6.00075 1 4.4541 2.54665 4.4541 4.45455C4.4541 6.36244 6.00075 7.90909 7.90865 7.90909Z" stroke="#636161" stroke-width="1.5" stroke-linecap="round" stroke-linejoin="round"/>
<path d="M20 16.5451V14.8179C19.9995 14.0524 19.7447 13.3089 19.2758 12.7039C18.8068 12.099 18.1502 11.6669 17.4091 11.4756" stroke="#636161" stroke-width="1.5" stroke-linecap="round" stroke-linejoin="round"/>
<path d="M13.9541 1.1123C14.6972 1.30256 15.3558 1.73473 15.8262 2.34066C16.2965 2.9466 16.5518 3.69184 16.5518 4.4589C16.5518 5.22595 16.2965 5.97119 15.8262 6.57713C15.3558 7.18306 14.6972 7.61523 13.9541 7.80549" stroke="#636161" stroke-width="1.5" stroke-linecap="round" stroke-linejoin="round"/>
</svg>
